<mxfile host="app.diagrams.net" modified="2023-11-29T11:35:40.386Z" agent="Mozilla/5.0 (Windows NT 10.0; Win64; x64) AppleWebKit/537.36 (KHTML, like Gecko) Chrome/119.0.0.0 Safari/537.36 Edg/119.0.0.0" etag="1CAiLarT4IpW8yXp80eD" version="22.1.4" type="device" pages="2">
  <diagram name="main" id="qwsJ7sI98dYYLEPwL8mu">
    <mxGraphModel dx="1042" dy="617" grid="1" gridSize="10" guides="1" tooltips="1" connect="1" arrows="1" fold="1" page="1" pageScale="1" pageWidth="1169" pageHeight="827" math="0" shadow="0">
      <root>
        <mxCell id="0" />
        <mxCell id="1" parent="0" />
        <mxCell id="ve7pHCmIOfJNiaFDG-8t-1" value="MLOps" style="ellipse;whiteSpace=wrap;html=1;aspect=fixed;fontSize=64;fillColor=#d5e8d4;strokeColor=#82b366;" parent="1" vertex="1">
          <mxGeometry x="100" y="140" width="400" height="400" as="geometry" />
        </mxCell>
        <mxCell id="ve7pHCmIOfJNiaFDG-8t-2" value="GitOps" style="ellipse;whiteSpace=wrap;html=1;aspect=fixed;fontSize=64;fillColor=#dae8fc;strokeColor=#6c8ebf;" parent="1" vertex="1">
          <mxGeometry x="520" y="140" width="400" height="400" as="geometry" />
        </mxCell>
      </root>
    </mxGraphModel>
  </diagram>
  <diagram id="bN7tOCEkjHRPXtWJGFfD" name="streamline">
    <mxGraphModel dx="1303" dy="1598" grid="1" gridSize="10" guides="1" tooltips="1" connect="1" arrows="1" fold="1" page="1" pageScale="1" pageWidth="1169" pageHeight="827" math="0" shadow="0">
      <root>
        <mxCell id="0" />
        <mxCell id="1" parent="0" />
        <mxCell id="Q1PKUf69scCBTh1Wh_l3-36" style="edgeStyle=orthogonalEdgeStyle;rounded=0;orthogonalLoop=1;jettySize=auto;html=1;entryX=0;entryY=0.5;entryDx=0;entryDy=0;" edge="1" parent="1" source="Q1PKUf69scCBTh1Wh_l3-1" target="Q1PKUf69scCBTh1Wh_l3-25">
          <mxGeometry relative="1" as="geometry" />
        </mxCell>
        <mxCell id="Q1PKUf69scCBTh1Wh_l3-37" style="edgeStyle=orthogonalEdgeStyle;rounded=0;orthogonalLoop=1;jettySize=auto;html=1;entryX=0;entryY=0.5;entryDx=0;entryDy=0;" edge="1" parent="1" source="Q1PKUf69scCBTh1Wh_l3-1" target="Q1PKUf69scCBTh1Wh_l3-18">
          <mxGeometry relative="1" as="geometry" />
        </mxCell>
        <mxCell id="Q1PKUf69scCBTh1Wh_l3-1" value="01_data_ingestion" style="image;aspect=fixed;html=1;points=[];align=center;fontSize=14;image=img/lib/azure2/general/Folder_Blank.svg;" vertex="1" parent="1">
          <mxGeometry x="220" y="320" width="61.61" height="50" as="geometry" />
        </mxCell>
        <mxCell id="Q1PKUf69scCBTh1Wh_l3-2" value="02_data_validation" style="image;aspect=fixed;html=1;points=[];align=center;fontSize=14;image=img/lib/azure2/general/Folder_Blank.svg;" vertex="1" parent="1">
          <mxGeometry x="408" y="320" width="61.61" height="50" as="geometry" />
        </mxCell>
        <mxCell id="Q1PKUf69scCBTh1Wh_l3-44" style="edgeStyle=orthogonalEdgeStyle;rounded=0;orthogonalLoop=1;jettySize=auto;html=1;entryX=0;entryY=0.5;entryDx=0;entryDy=0;" edge="1" parent="1" source="Q1PKUf69scCBTh1Wh_l3-3" target="Q1PKUf69scCBTh1Wh_l3-28">
          <mxGeometry relative="1" as="geometry" />
        </mxCell>
        <mxCell id="Q1PKUf69scCBTh1Wh_l3-45" style="edgeStyle=orthogonalEdgeStyle;rounded=0;orthogonalLoop=1;jettySize=auto;html=1;entryX=0;entryY=0.5;entryDx=0;entryDy=0;" edge="1" parent="1" source="Q1PKUf69scCBTh1Wh_l3-3" target="Q1PKUf69scCBTh1Wh_l3-29">
          <mxGeometry relative="1" as="geometry" />
        </mxCell>
        <mxCell id="Q1PKUf69scCBTh1Wh_l3-3" value="03_data_transformation" style="image;aspect=fixed;html=1;points=[];align=center;fontSize=14;image=img/lib/azure2/general/Folder_Blank.svg;" vertex="1" parent="1">
          <mxGeometry x="596" y="320" width="61.61" height="50" as="geometry" />
        </mxCell>
        <mxCell id="Q1PKUf69scCBTh1Wh_l3-4" value="04_model_trainer" style="image;aspect=fixed;html=1;points=[];align=center;fontSize=14;image=img/lib/azure2/general/Folder_Blank.svg;" vertex="1" parent="1">
          <mxGeometry x="784" y="320" width="61.61" height="50" as="geometry" />
        </mxCell>
        <mxCell id="Q1PKUf69scCBTh1Wh_l3-5" value="05_model_evaluation" style="image;aspect=fixed;html=1;points=[];align=center;fontSize=14;image=img/lib/azure2/general/Folder_Blank.svg;" vertex="1" parent="1">
          <mxGeometry x="972.5" y="320" width="61.61" height="50" as="geometry" />
        </mxCell>
        <mxCell id="Q1PKUf69scCBTh1Wh_l3-30" style="edgeStyle=orthogonalEdgeStyle;rounded=0;orthogonalLoop=1;jettySize=auto;html=1;" edge="1" parent="1" source="Q1PKUf69scCBTh1Wh_l3-6" target="Q1PKUf69scCBTh1Wh_l3-5">
          <mxGeometry relative="1" as="geometry">
            <Array as="points">
              <mxPoint x="101" y="280" />
              <mxPoint x="1003" y="280" />
            </Array>
          </mxGeometry>
        </mxCell>
        <mxCell id="Q1PKUf69scCBTh1Wh_l3-6" value="artifacts" style="image;aspect=fixed;html=1;points=[];align=center;fontSize=14;image=img/lib/azure2/general/Folder_Blank.svg;labelBackgroundColor=default;fontColor=default;labelBorderColor=none;fontStyle=0" vertex="1" parent="1">
          <mxGeometry x="70" y="180" width="61.61" height="50" as="geometry" />
        </mxCell>
        <mxCell id="Q1PKUf69scCBTh1Wh_l3-8" value="" style="shape=image;verticalLabelPosition=bottom;labelBackgroundColor=default;verticalAlign=top;aspect=fixed;imageAspect=0;image=https://mlflow.org/docs/latest/_static/MLflow-logo-final-black.png;" vertex="1" parent="1">
          <mxGeometry x="480" y="730" width="250" height="91.67" as="geometry" />
        </mxCell>
        <mxCell id="Q1PKUf69scCBTh1Wh_l3-12" value="metrics.json" style="image;aspect=fixed;html=1;points=[];align=left;fontSize=14;image=img/lib/azure2/general/Templates.svg;" vertex="1" parent="1">
          <mxGeometry x="1034.11" y="435" width="41.18" height="50" as="geometry" />
        </mxCell>
        <mxCell id="Q1PKUf69scCBTh1Wh_l3-14" value="status.txt" style="image;aspect=fixed;html=1;points=[];align=left;fontSize=14;image=img/lib/azure2/general/File.svg;" vertex="1" parent="1">
          <mxGeometry x="460" y="437" width="40.58" height="50" as="geometry" />
        </mxCell>
        <mxCell id="Q1PKUf69scCBTh1Wh_l3-18" value="data.zip" style="shape=image;verticalLabelPosition=bottom;labelBackgroundColor=default;verticalAlign=top;aspect=fixed;imageAspect=0;image=https://github.com/vscode-icons/vscode-icons/raw/master/icons/file_type_zip.svg;fontSize=14;align=left;" vertex="1" parent="1">
          <mxGeometry x="280" y="432" width="56" height="56" as="geometry" />
        </mxCell>
        <mxCell id="Q1PKUf69scCBTh1Wh_l3-19" value="scaler.joblib" style="image;aspect=fixed;html=1;points=[];align=left;fontSize=14;image=img/lib/azure2/general/File.svg;imageBackground=default;" vertex="1" parent="1">
          <mxGeometry x="649.4200000000001" y="435" width="40.58" height="50" as="geometry" />
        </mxCell>
        <mxCell id="Q1PKUf69scCBTh1Wh_l3-22" value="model.joblib" style="image;aspect=fixed;html=1;points=[];align=left;fontSize=14;image=img/lib/azure2/general/File.svg;imageBackground=default;" vertex="1" parent="1">
          <mxGeometry x="840" y="435" width="40.58" height="50" as="geometry" />
        </mxCell>
        <mxCell id="Q1PKUf69scCBTh1Wh_l3-25" value="diabetes_dataset__2019.csv" style="shape=image;verticalLabelPosition=bottom;labelBackgroundColor=default;verticalAlign=top;aspect=fixed;imageAspect=0;image=data:image/png,iVBORw0KGgoAAAANSUhEUgAAAOEAAADhCAMAAAAJbSJIAAAAtFBMVEX///8QfEGXlZOLv4qsqqmSkI7q6urV1NOwr60Acy6YlpWTkY8AdTTV5dynxLGoyLTE2syFvITc3Nvk5OTCwcDV59S1zb3P39WCu4EAcSoAeTy417eQwo/i7uLz+PPu9e6jy6LK4Mk5jFvN4s2v0q7f7d+mpKKOuZ5KlGgrhlGbwKmBsZMYgEe91sfA27+cyJt3q4tcnHW6ubiIn49zjHpUmG8ziVdrpYF7rY51mIFjiG/LysnpJfGaAAAIfklEQVR4nO2dbUPiOBDHQegqD552V7QtUMqCqLsu6N7tenf7/b/X9REz7SRt1maSevm/04aWH5NkMpMh9HpWVlZWVlZWVlZWVlaa9fFsfKJWu6sPOgF3zkQx4MnJxLnSB3iini+RM9QFeEYDqA/xg5M8fDxUp51mxKvYhBOlYyT9DMcTbYhJJ3WUPuFTTOh8PHN0IZ4lH7DSJ2SEvaEuK5IR9oaarEhHmCOeKX0YIkJCTR2VklAPIimhFkRaQh2IxIQ5IuV0Q01Ib0VyQnIr0hNSI2ogJEbUQdjbUY5FLYSkVtRDmFuRBFETIaHT0EVI11G1EZIh6iOkQtRISDTd6CSksaJWQhIr6iWksKJmQgIr6iZUb0XthMqtqJ9QNaIBhIoRTSBUi2gEoVJEMwhVIhpCqBDRFEJ1iMYQKkM0h1AVokGEihBNIlSDaBRhjvi91eerJ0zqaRpX7GSIDT+PZlJP2EsLFE4bNh4m1VO7Nh9PQPg9tUtDZfVhbT6egLDn1BX1leW0WY1KQfhJFrFzhL0PO8eZNFQ3CWPG06uGOusoYXOdOpZQUpaQXJZQWpaQXJZQWpaQXJZQWv8HwvG464Srm0uB/vwrlqhBSUtFYEfJEoZ/P/ojkYJEwhZQfvB8rg6vJ0144U/7bSvw/1YIKEl457fOl2h6bwrhtRrAGPHJDMJwpAiw3/dvjCC8a38MFgo+G0H4ECgj7I9WBhAq7KQx4TcDCM9VzTOJphcmEKq04fQPS2gJLaEltISWsMuEwZQV/v6D2iYGEwZfr1mhS9fgnmlx+dA1wp+gERp/+Gwy5hK9jcGE/ekX0AohhPHtI34Xgwn7Pgh8vlQRRyFz/WvnxmHcT59Bs8pInN6xN+EEKEYT9v1LtlnViOzVz5wo2mzC4BG0K10dXTPXLnj3MJuwNNlAiuCBuRRyMz2GE5ayLGC2BFm0F26mx3RCONmwRgx+MBcu+XkQ0wlLkw2TlAPO/pGfrDOeEE4218eWwNmL8q3GE0Kn92rEKePsl6JcnfmEcLL5ljcFk+y9KKHcAUIwpRSOPWD+xXWFXSHs+2zWOps1WWdfkzHvAiGcbBIjgsDqRbyt0wVCONnc+NCF3NRsCXSCEIZR90HA7uwKXGGHCMFkc+Oz67XarcduEMItsgfGhKval3aEEHiHa2YUCl1hpwjhyuao6wavrCNcztb7/Xy/39xK7ha3nBEeYSVOYYPdcRFhuNkuPM8t5LnbmT7CAKuMqXGFNYSzQ0w1AIr/3ugixPbj61yhkHCz8AaYvEgXIcw7pWpUwoETrhYuypcqxF5BQDj9WnoZkkBtTDhjDZgOQubvhSbCvl/6bOtWM0LCnCieXQ7b/XqzWcdzTkHpRnoIKw5DkJxpSOgO5swUvYoKw3q3OghLGzWJnn9/HCaE3qEMsikQDzoI/Wo5LD9J2oDQXSAedp13VK+J82+ZEF3UiKN7IaG3R9/KIR+Ja3JCkOB+Vf2ylEfIqQJf5kaMyAnZPsrETsIsm4iQq8JjUBOyvjAcMS+tr0yVJNzm3bSB1281AmYzNU8+W21Y6xQlCfO5pslU02oWg+mY535/yry2dm0qSXibEboNPGKbmSg2gx9PLmBerYsvJAmXmUt0G4RRirKJ6UKGXb/VxYhdIATbTz+DslFr4vymhOFytt8eipCDlHD6wjTNfTyI+MVOsZZwdbuZRwc3ifWZcIOSkE1CFfUYIL0ozreJCFeb7cL13EqoT0sIdi2O7g9scQudoiiL4XHDYEJC0EdfrQW/KCIK9rlZjAGKRz8O2Z1Q1jOAtI3IKeKEYVTO0iS5Nm8QzSNiQtBHYdkTe4cnfj9FCVeQzXMX0Xyd5UvnLikhLMUAk+aIXbsJnCJGGDJ43mEPUsHEhKA0r5S1AHPsN+4tMMLDMSOz2JSX2LSEoK6rPJ/AmPgHz4oI4TFZ4SLpX1JCuINfCeiBgblOESFc5IAeFgaTEgIEpPgSfMuXlz2tEuZLz4GLJjK2hHMpmEswtw4rbDlOsUq4L9JNaJRL6C3gXgzWC+FMyymhrRJGeSfFU4YLOkJoITQMhBlG3ClWCfNh6M6x9xLSRU/wm5G4gUpbbg1tOBANw41LRvh4fvOqc06ENLpgG6ErcEnCwsAUvRQeGYECxu+fbdSwlw4EvbTYk6KN8d8m7jhEZ5rjYq7ThBF/c2Lr4oTZFqO77Qhhsf1S3SaM1zNofJhPsKVNN3MJw+OytDTXxBZ059iaJt9PdWFzcwmZvhgx/71N7LdA16XZ/wawk5pMeDRisgmc9bzlPi3NcEOUMNtzK+fBDSZk6xSS3EWijGuJxhbFOqd0F5MJXyNEoAQQI7xFO6k5hOi5GMtqps07pLEGQrjHQ0YJwvoSyjeId7bJHOa4vaLca55miD0W54B2UqnzafBvf7Yjn7cTGK4j1ytK9qIj0XIzi7VhX5V2abfcSbtxxtBqOZut68ous5xAdR0nQ7hSd0CN//YDePJhWPm/1FlfX5Sd9fVc//A6RfgST/K8tidF57VVC6nkxUu+SZ65d+e3fxpW4L/UP7hW2TBE0lay5yYuX+IQVqT03ERhC6iRf9/KWW1ZKBJVL/zG2Zc3FyL9828sYQuoy4aFsHVKw0ksO97++aVjPeeXDjid9N2cQbtKhyGW8XgvhGn0i9YqvhfCLa+TvhvCBa+TvhfCMFmce2hB7TshXK0ToY7nnRAKZAmlZQnJZQmlZQnJZQmlZQnJZQmlZQnJZQmlZQnJZQmlZQnJZQmlZQnJZQmldTY5affH2t+qX5OWCZMbTq5avOEb9SH55fFJq3d0kl/6Hg8N0S79bfVhm4S94UTyx+vVq9VOGuvENETnV7uAvd7OMYnRcU7bBuz1Pn4f6+YqNN79aqkUwsrKysrKysrKysrKCtN/R6bpbdjIscIAAAAASUVORK5CYII=;fontSize=14;imageBorder=none;align=left;" vertex="1" parent="1">
          <mxGeometry x="281.61" y="530" width="50" height="50" as="geometry" />
        </mxCell>
        <mxCell id="Q1PKUf69scCBTh1Wh_l3-28" value="test.csv" style="shape=image;verticalLabelPosition=bottom;labelBackgroundColor=default;verticalAlign=top;aspect=fixed;imageAspect=0;image=data:image/png,iVBORw0KGgoAAAANSUhEUgAAAOEAAADhCAMAAAAJbSJIAAAAtFBMVEX///8QfEGXlZOLv4qsqqmSkI7q6urV1NOwr60Acy6YlpWTkY8AdTTV5dynxLGoyLTE2syFvITc3Nvk5OTCwcDV59S1zb3P39WCu4EAcSoAeTy417eQwo/i7uLz+PPu9e6jy6LK4Mk5jFvN4s2v0q7f7d+mpKKOuZ5KlGgrhlGbwKmBsZMYgEe91sfA27+cyJt3q4tcnHW6ubiIn49zjHpUmG8ziVdrpYF7rY51mIFjiG/LysnpJfGaAAAIfklEQVR4nO2dbUPiOBDHQegqD552V7QtUMqCqLsu6N7tenf7/b/X9REz7SRt1maSevm/04aWH5NkMpMh9HpWVlZWVlZWVlZWVlaa9fFsfKJWu6sPOgF3zkQx4MnJxLnSB3iini+RM9QFeEYDqA/xg5M8fDxUp51mxKvYhBOlYyT9DMcTbYhJJ3WUPuFTTOh8PHN0IZ4lH7DSJ2SEvaEuK5IR9oaarEhHmCOeKX0YIkJCTR2VklAPIimhFkRaQh2IxIQ5IuV0Q01Ib0VyQnIr0hNSI2ogJEbUQdjbUY5FLYSkVtRDmFuRBFETIaHT0EVI11G1EZIh6iOkQtRISDTd6CSksaJWQhIr6iWksKJmQgIr6iZUb0XthMqtqJ9QNaIBhIoRTSBUi2gEoVJEMwhVIhpCqBDRFEJ1iMYQKkM0h1AVokGEihBNIlSDaBRhjvi91eerJ0zqaRpX7GSIDT+PZlJP2EsLFE4bNh4m1VO7Nh9PQPg9tUtDZfVhbT6egLDn1BX1leW0WY1KQfhJFrFzhL0PO8eZNFQ3CWPG06uGOusoYXOdOpZQUpaQXJZQWpaQXJZQWpaQXJZQWv8HwvG464Srm0uB/vwrlqhBSUtFYEfJEoZ/P/ojkYJEwhZQfvB8rg6vJ0144U/7bSvw/1YIKEl457fOl2h6bwrhtRrAGPHJDMJwpAiw3/dvjCC8a38MFgo+G0H4ECgj7I9WBhAq7KQx4TcDCM9VzTOJphcmEKq04fQPS2gJLaEltISWsMuEwZQV/v6D2iYGEwZfr1mhS9fgnmlx+dA1wp+gERp/+Gwy5hK9jcGE/ekX0AohhPHtI34Xgwn7Pgh8vlQRRyFz/WvnxmHcT59Bs8pInN6xN+EEKEYT9v1LtlnViOzVz5wo2mzC4BG0K10dXTPXLnj3MJuwNNlAiuCBuRRyMz2GE5ayLGC2BFm0F26mx3RCONmwRgx+MBcu+XkQ0wlLkw2TlAPO/pGfrDOeEE4218eWwNmL8q3GE0Kn92rEKePsl6JcnfmEcLL5ljcFk+y9KKHcAUIwpRSOPWD+xXWFXSHs+2zWOps1WWdfkzHvAiGcbBIjgsDqRbyt0wVCONnc+NCF3NRsCXSCEIZR90HA7uwKXGGHCMFkc+Oz67XarcduEMItsgfGhKval3aEEHiHa2YUCl1hpwjhyuao6wavrCNcztb7/Xy/39xK7ha3nBEeYSVOYYPdcRFhuNkuPM8t5LnbmT7CAKuMqXGFNYSzQ0w1AIr/3ugixPbj61yhkHCz8AaYvEgXIcw7pWpUwoETrhYuypcqxF5BQDj9WnoZkkBtTDhjDZgOQubvhSbCvl/6bOtWM0LCnCieXQ7b/XqzWcdzTkHpRnoIKw5DkJxpSOgO5swUvYoKw3q3OghLGzWJnn9/HCaE3qEMsikQDzoI/Wo5LD9J2oDQXSAedp13VK+J82+ZEF3UiKN7IaG3R9/KIR+Ja3JCkOB+Vf2ylEfIqQJf5kaMyAnZPsrETsIsm4iQq8JjUBOyvjAcMS+tr0yVJNzm3bSB1281AmYzNU8+W21Y6xQlCfO5pslU02oWg+mY535/yry2dm0qSXibEboNPGKbmSg2gx9PLmBerYsvJAmXmUt0G4RRirKJ6UKGXb/VxYhdIATbTz+DslFr4vymhOFytt8eipCDlHD6wjTNfTyI+MVOsZZwdbuZRwc3ifWZcIOSkE1CFfUYIL0ozreJCFeb7cL13EqoT0sIdi2O7g9scQudoiiL4XHDYEJC0EdfrQW/KCIK9rlZjAGKRz8O2Z1Q1jOAtI3IKeKEYVTO0iS5Nm8QzSNiQtBHYdkTe4cnfj9FCVeQzXMX0Xyd5UvnLikhLMUAk+aIXbsJnCJGGDJ43mEPUsHEhKA0r5S1AHPsN+4tMMLDMSOz2JSX2LSEoK6rPJ/AmPgHz4oI4TFZ4SLpX1JCuINfCeiBgblOESFc5IAeFgaTEgIEpPgSfMuXlz2tEuZLz4GLJjK2hHMpmEswtw4rbDlOsUq4L9JNaJRL6C3gXgzWC+FMyymhrRJGeSfFU4YLOkJoITQMhBlG3ClWCfNh6M6x9xLSRU/wm5G4gUpbbg1tOBANw41LRvh4fvOqc06ENLpgG6ErcEnCwsAUvRQeGYECxu+fbdSwlw4EvbTYk6KN8d8m7jhEZ5rjYq7ThBF/c2Lr4oTZFqO77Qhhsf1S3SaM1zNofJhPsKVNN3MJw+OytDTXxBZ059iaJt9PdWFzcwmZvhgx/71N7LdA16XZ/wawk5pMeDRisgmc9bzlPi3NcEOUMNtzK+fBDSZk6xSS3EWijGuJxhbFOqd0F5MJXyNEoAQQI7xFO6k5hOi5GMtqps07pLEGQrjHQ0YJwvoSyjeId7bJHOa4vaLca55miD0W54B2UqnzafBvf7Yjn7cTGK4j1ytK9qIj0XIzi7VhX5V2abfcSbtxxtBqOZut68ous5xAdR0nQ7hSd0CN//YDePJhWPm/1FlfX5Sd9fVc//A6RfgST/K8tidF57VVC6nkxUu+SZ65d+e3fxpW4L/UP7hW2TBE0lay5yYuX+IQVqT03ERhC6iRf9/KWW1ZKBJVL/zG2Zc3FyL9828sYQuoy4aFsHVKw0ksO97++aVjPeeXDjid9N2cQbtKhyGW8XgvhGn0i9YqvhfCLa+TvhvCBa+TvhfCMFmce2hB7TshXK0ToY7nnRAKZAmlZQnJZQmlZQnJZQmlZQnJZQmlZQnJZQmlZQnJZQmlZQnJZQmlZQnJZQmldTY5affH2t+qX5OWCZMbTq5avOEb9SH55fFJq3d0kl/6Hg8N0S79bfVhm4S94UTyx+vVq9VOGuvENETnV7uAvd7OMYnRcU7bBuz1Pn4f6+YqNN79aqkUwsrKysrKysrKysrKCtN/R6bpbdjIscIAAAAASUVORK5CYII=;fontSize=14;align=left;" vertex="1" parent="1">
          <mxGeometry x="649.42" y="530" width="50" height="50" as="geometry" />
        </mxCell>
        <mxCell id="Q1PKUf69scCBTh1Wh_l3-29" value="train.csv" style="shape=image;verticalLabelPosition=bottom;labelBackgroundColor=default;verticalAlign=top;aspect=fixed;imageAspect=0;image=data:image/png,iVBORw0KGgoAAAANSUhEUgAAAOEAAADhCAMAAAAJbSJIAAAAtFBMVEX///8QfEGXlZOLv4qsqqmSkI7q6urV1NOwr60Acy6YlpWTkY8AdTTV5dynxLGoyLTE2syFvITc3Nvk5OTCwcDV59S1zb3P39WCu4EAcSoAeTy417eQwo/i7uLz+PPu9e6jy6LK4Mk5jFvN4s2v0q7f7d+mpKKOuZ5KlGgrhlGbwKmBsZMYgEe91sfA27+cyJt3q4tcnHW6ubiIn49zjHpUmG8ziVdrpYF7rY51mIFjiG/LysnpJfGaAAAIfklEQVR4nO2dbUPiOBDHQegqD552V7QtUMqCqLsu6N7tenf7/b/X9REz7SRt1maSevm/04aWH5NkMpMh9HpWVlZWVlZWVlZWVlaa9fFsfKJWu6sPOgF3zkQx4MnJxLnSB3iini+RM9QFeEYDqA/xg5M8fDxUp51mxKvYhBOlYyT9DMcTbYhJJ3WUPuFTTOh8PHN0IZ4lH7DSJ2SEvaEuK5IR9oaarEhHmCOeKX0YIkJCTR2VklAPIimhFkRaQh2IxIQ5IuV0Q01Ib0VyQnIr0hNSI2ogJEbUQdjbUY5FLYSkVtRDmFuRBFETIaHT0EVI11G1EZIh6iOkQtRISDTd6CSksaJWQhIr6iWksKJmQgIr6iZUb0XthMqtqJ9QNaIBhIoRTSBUi2gEoVJEMwhVIhpCqBDRFEJ1iMYQKkM0h1AVokGEihBNIlSDaBRhjvi91eerJ0zqaRpX7GSIDT+PZlJP2EsLFE4bNh4m1VO7Nh9PQPg9tUtDZfVhbT6egLDn1BX1leW0WY1KQfhJFrFzhL0PO8eZNFQ3CWPG06uGOusoYXOdOpZQUpaQXJZQWpaQXJZQWpaQXJZQWv8HwvG464Srm0uB/vwrlqhBSUtFYEfJEoZ/P/ojkYJEwhZQfvB8rg6vJ0144U/7bSvw/1YIKEl457fOl2h6bwrhtRrAGPHJDMJwpAiw3/dvjCC8a38MFgo+G0H4ECgj7I9WBhAq7KQx4TcDCM9VzTOJphcmEKq04fQPS2gJLaEltISWsMuEwZQV/v6D2iYGEwZfr1mhS9fgnmlx+dA1wp+gERp/+Gwy5hK9jcGE/ekX0AohhPHtI34Xgwn7Pgh8vlQRRyFz/WvnxmHcT59Bs8pInN6xN+EEKEYT9v1LtlnViOzVz5wo2mzC4BG0K10dXTPXLnj3MJuwNNlAiuCBuRRyMz2GE5ayLGC2BFm0F26mx3RCONmwRgx+MBcu+XkQ0wlLkw2TlAPO/pGfrDOeEE4218eWwNmL8q3GE0Kn92rEKePsl6JcnfmEcLL5ljcFk+y9KKHcAUIwpRSOPWD+xXWFXSHs+2zWOps1WWdfkzHvAiGcbBIjgsDqRbyt0wVCONnc+NCF3NRsCXSCEIZR90HA7uwKXGGHCMFkc+Oz67XarcduEMItsgfGhKval3aEEHiHa2YUCl1hpwjhyuao6wavrCNcztb7/Xy/39xK7ha3nBEeYSVOYYPdcRFhuNkuPM8t5LnbmT7CAKuMqXGFNYSzQ0w1AIr/3ugixPbj61yhkHCz8AaYvEgXIcw7pWpUwoETrhYuypcqxF5BQDj9WnoZkkBtTDhjDZgOQubvhSbCvl/6bOtWM0LCnCieXQ7b/XqzWcdzTkHpRnoIKw5DkJxpSOgO5swUvYoKw3q3OghLGzWJnn9/HCaE3qEMsikQDzoI/Wo5LD9J2oDQXSAedp13VK+J82+ZEF3UiKN7IaG3R9/KIR+Ja3JCkOB+Vf2ylEfIqQJf5kaMyAnZPsrETsIsm4iQq8JjUBOyvjAcMS+tr0yVJNzm3bSB1281AmYzNU8+W21Y6xQlCfO5pslU02oWg+mY535/yry2dm0qSXibEboNPGKbmSg2gx9PLmBerYsvJAmXmUt0G4RRirKJ6UKGXb/VxYhdIATbTz+DslFr4vymhOFytt8eipCDlHD6wjTNfTyI+MVOsZZwdbuZRwc3ifWZcIOSkE1CFfUYIL0ozreJCFeb7cL13EqoT0sIdi2O7g9scQudoiiL4XHDYEJC0EdfrQW/KCIK9rlZjAGKRz8O2Z1Q1jOAtI3IKeKEYVTO0iS5Nm8QzSNiQtBHYdkTe4cnfj9FCVeQzXMX0Xyd5UvnLikhLMUAk+aIXbsJnCJGGDJ43mEPUsHEhKA0r5S1AHPsN+4tMMLDMSOz2JSX2LSEoK6rPJ/AmPgHz4oI4TFZ4SLpX1JCuINfCeiBgblOESFc5IAeFgaTEgIEpPgSfMuXlz2tEuZLz4GLJjK2hHMpmEswtw4rbDlOsUq4L9JNaJRL6C3gXgzWC+FMyymhrRJGeSfFU4YLOkJoITQMhBlG3ClWCfNh6M6x9xLSRU/wm5G4gUpbbg1tOBANw41LRvh4fvOqc06ENLpgG6ErcEnCwsAUvRQeGYECxu+fbdSwlw4EvbTYk6KN8d8m7jhEZ5rjYq7ThBF/c2Lr4oTZFqO77Qhhsf1S3SaM1zNofJhPsKVNN3MJw+OytDTXxBZ059iaJt9PdWFzcwmZvhgx/71N7LdA16XZ/wawk5pMeDRisgmc9bzlPi3NcEOUMNtzK+fBDSZk6xSS3EWijGuJxhbFOqd0F5MJXyNEoAQQI7xFO6k5hOi5GMtqps07pLEGQrjHQ0YJwvoSyjeId7bJHOa4vaLca55miD0W54B2UqnzafBvf7Yjn7cTGK4j1ytK9qIj0XIzi7VhX5V2abfcSbtxxtBqOZut68ous5xAdR0nQ7hSd0CN//YDePJhWPm/1FlfX5Sd9fVc//A6RfgST/K8tidF57VVC6nkxUu+SZ65d+e3fxpW4L/UP7hW2TBE0lay5yYuX+IQVqT03ERhC6iRf9/KWW1ZKBJVL/zG2Zc3FyL9828sYQuoy4aFsHVKw0ksO97++aVjPeeXDjid9N2cQbtKhyGW8XgvhGn0i9YqvhfCLa+TvhvCBa+TvhfCMFmce2hB7TshXK0ToY7nnRAKZAmlZQnJZQmlZQnJZQmlZQnJZQmlZQnJZQmlZQnJZQmlZQnJZQmlZQnJZQmldTY5affH2t+qX5OWCZMbTq5avOEb9SH55fFJq3d0kl/6Hg8N0S79bfVhm4S94UTyx+vVq9VOGuvENETnV7uAvd7OMYnRcU7bBuz1Pn4f6+YqNN79aqkUwsrKysrKysrKysrKCtN/R6bpbdjIscIAAAAASUVORK5CYII=;fontSize=14;align=left;" vertex="1" parent="1">
          <mxGeometry x="649.42" y="630" width="50" height="50" as="geometry" />
        </mxCell>
        <mxCell id="Q1PKUf69scCBTh1Wh_l3-31" style="edgeStyle=orthogonalEdgeStyle;rounded=0;orthogonalLoop=1;jettySize=auto;html=1;entryX=0.44;entryY=0.007;entryDx=0;entryDy=0;entryPerimeter=0;" edge="1" parent="1" source="Q1PKUf69scCBTh1Wh_l3-6" target="Q1PKUf69scCBTh1Wh_l3-4">
          <mxGeometry relative="1" as="geometry">
            <Array as="points">
              <mxPoint x="101" y="280" />
              <mxPoint x="811" y="280" />
            </Array>
          </mxGeometry>
        </mxCell>
        <mxCell id="Q1PKUf69scCBTh1Wh_l3-32" style="edgeStyle=orthogonalEdgeStyle;rounded=0;orthogonalLoop=1;jettySize=auto;html=1;entryX=0.457;entryY=0.007;entryDx=0;entryDy=0;entryPerimeter=0;" edge="1" parent="1" source="Q1PKUf69scCBTh1Wh_l3-6" target="Q1PKUf69scCBTh1Wh_l3-3">
          <mxGeometry relative="1" as="geometry">
            <Array as="points">
              <mxPoint x="101" y="280" />
              <mxPoint x="624" y="280" />
            </Array>
          </mxGeometry>
        </mxCell>
        <mxCell id="Q1PKUf69scCBTh1Wh_l3-33" style="edgeStyle=orthogonalEdgeStyle;rounded=0;orthogonalLoop=1;jettySize=auto;html=1;entryX=0.519;entryY=0;entryDx=0;entryDy=0;entryPerimeter=0;" edge="1" parent="1" source="Q1PKUf69scCBTh1Wh_l3-6" target="Q1PKUf69scCBTh1Wh_l3-2">
          <mxGeometry relative="1" as="geometry">
            <Array as="points">
              <mxPoint x="101" y="280" />
              <mxPoint x="440" y="280" />
            </Array>
          </mxGeometry>
        </mxCell>
        <mxCell id="Q1PKUf69scCBTh1Wh_l3-34" style="edgeStyle=orthogonalEdgeStyle;rounded=0;orthogonalLoop=1;jettySize=auto;html=1;entryX=0.505;entryY=-0.009;entryDx=0;entryDy=0;entryPerimeter=0;" edge="1" parent="1" source="Q1PKUf69scCBTh1Wh_l3-6" target="Q1PKUf69scCBTh1Wh_l3-1">
          <mxGeometry relative="1" as="geometry">
            <Array as="points">
              <mxPoint x="101" y="280" />
              <mxPoint x="251" y="280" />
            </Array>
          </mxGeometry>
        </mxCell>
        <mxCell id="Q1PKUf69scCBTh1Wh_l3-38" style="edgeStyle=orthogonalEdgeStyle;rounded=0;orthogonalLoop=1;jettySize=auto;html=1;entryX=-0.016;entryY=0.442;entryDx=0;entryDy=0;entryPerimeter=0;" edge="1" parent="1" source="Q1PKUf69scCBTh1Wh_l3-2" target="Q1PKUf69scCBTh1Wh_l3-14">
          <mxGeometry relative="1" as="geometry" />
        </mxCell>
        <mxCell id="Q1PKUf69scCBTh1Wh_l3-40" style="edgeStyle=orthogonalEdgeStyle;rounded=0;orthogonalLoop=1;jettySize=auto;html=1;entryX=-0.003;entryY=0.483;entryDx=0;entryDy=0;entryPerimeter=0;" edge="1" parent="1" source="Q1PKUf69scCBTh1Wh_l3-3" target="Q1PKUf69scCBTh1Wh_l3-19">
          <mxGeometry relative="1" as="geometry" />
        </mxCell>
        <mxCell id="Q1PKUf69scCBTh1Wh_l3-42" style="edgeStyle=orthogonalEdgeStyle;rounded=0;orthogonalLoop=1;jettySize=auto;html=1;entryX=-0.016;entryY=0.492;entryDx=0;entryDy=0;entryPerimeter=0;" edge="1" parent="1" source="Q1PKUf69scCBTh1Wh_l3-4" target="Q1PKUf69scCBTh1Wh_l3-22">
          <mxGeometry relative="1" as="geometry" />
        </mxCell>
        <mxCell id="Q1PKUf69scCBTh1Wh_l3-43" style="edgeStyle=orthogonalEdgeStyle;rounded=0;orthogonalLoop=1;jettySize=auto;html=1;entryX=0.015;entryY=0.473;entryDx=0;entryDy=0;entryPerimeter=0;" edge="1" parent="1" source="Q1PKUf69scCBTh1Wh_l3-5" target="Q1PKUf69scCBTh1Wh_l3-12">
          <mxGeometry relative="1" as="geometry" />
        </mxCell>
        <mxCell id="Q1PKUf69scCBTh1Wh_l3-46" value="&lt;p style=&quot;line-height: 500%;&quot;&gt;&lt;font style=&quot;font-size: 28px;&quot;&gt;ML Streamlined Workflow&lt;/font&gt;&lt;/p&gt;" style="swimlane;html=1;startSize=48;horizontal=1;childLayout=flowLayout;flowOrientation=west;resizable=0;interRankCellSpacing=50;containerType=tree;fontSize=12;swimlaneHead=0;swimlaneBody=1;absoluteArcSize=0;arcSize=15;spacing=0;fillColor=#f5f5f5;strokeColor=#666666;fontColor=#333333;" vertex="1" parent="1">
          <mxGeometry x="15" width="1140" height="148" as="geometry" />
        </mxCell>
        <mxCell id="Q1PKUf69scCBTh1Wh_l3-47" value="Stage 01&lt;br style=&quot;font-size: 18px;&quot;&gt;&lt;span style=&quot;font-weight: normal; font-size: 18px;&quot;&gt;Data Ingestion&lt;/span&gt;" style="whiteSpace=wrap;html=1;fontSize=18;fontStyle=1;spacing=0;fillColor=#d5e8d4;strokeColor=#82b366;" vertex="1" parent="Q1PKUf69scCBTh1Wh_l3-46">
          <mxGeometry x="20" y="68" width="180" height="60" as="geometry" />
        </mxCell>
        <mxCell id="Q1PKUf69scCBTh1Wh_l3-50" value="Stage 02&lt;br style=&quot;font-size: 18px;&quot;&gt;&lt;span style=&quot;font-weight: normal; font-size: 18px;&quot;&gt;Data Validation&lt;/span&gt;" style="whiteSpace=wrap;html=1;fontStyle=1;fontSize=18;spacing=0;fillColor=#dae8fc;strokeColor=#6c8ebf;" vertex="1" parent="Q1PKUf69scCBTh1Wh_l3-46">
          <mxGeometry x="250" y="68" width="180" height="60" as="geometry" />
        </mxCell>
        <mxCell id="Q1PKUf69scCBTh1Wh_l3-51" value="" style="html=1;rounded=1;curved=0;sourcePerimeterSpacing=0;targetPerimeterSpacing=0;startSize=6;endSize=6;noEdgeStyle=1;orthogonal=1;" edge="1" parent="Q1PKUf69scCBTh1Wh_l3-46" source="Q1PKUf69scCBTh1Wh_l3-47" target="Q1PKUf69scCBTh1Wh_l3-50">
          <mxGeometry relative="1" as="geometry">
            <Array as="points">
              <mxPoint x="212" y="98" />
              <mxPoint x="238" y="98" />
            </Array>
          </mxGeometry>
        </mxCell>
        <mxCell id="Q1PKUf69scCBTh1Wh_l3-61" value="" style="html=1;rounded=1;curved=0;sourcePerimeterSpacing=0;targetPerimeterSpacing=0;startSize=6;endSize=6;noEdgeStyle=1;orthogonal=1;" edge="1" target="Q1PKUf69scCBTh1Wh_l3-62" source="Q1PKUf69scCBTh1Wh_l3-50" parent="Q1PKUf69scCBTh1Wh_l3-46">
          <mxGeometry relative="1" as="geometry">
            <mxPoint x="2095.29" y="5095.5" as="sourcePoint" />
            <Array as="points">
              <mxPoint x="442" y="98" />
              <mxPoint x="468" y="98" />
            </Array>
          </mxGeometry>
        </mxCell>
        <mxCell id="Q1PKUf69scCBTh1Wh_l3-62" value="Stage 03&lt;br style=&quot;font-size: 18px;&quot;&gt;&lt;span style=&quot;font-weight: normal; font-size: 18px;&quot;&gt;Data Transformation&lt;/span&gt;" style="whiteSpace=wrap;html=1;fontStyle=1;fontSize=18;spacing=0;fillColor=#ffe6cc;strokeColor=#d79b00;" vertex="1" parent="Q1PKUf69scCBTh1Wh_l3-46">
          <mxGeometry x="480" y="68" width="180" height="60" as="geometry" />
        </mxCell>
        <mxCell id="Q1PKUf69scCBTh1Wh_l3-63" value="" style="html=1;rounded=1;curved=0;sourcePerimeterSpacing=0;targetPerimeterSpacing=0;startSize=6;endSize=6;noEdgeStyle=1;orthogonal=1;" edge="1" target="Q1PKUf69scCBTh1Wh_l3-64" source="Q1PKUf69scCBTh1Wh_l3-62" parent="Q1PKUf69scCBTh1Wh_l3-46">
          <mxGeometry relative="1" as="geometry">
            <mxPoint x="2225.29" y="5055.5" as="sourcePoint" />
            <Array as="points">
              <mxPoint x="672" y="98" />
              <mxPoint x="698" y="98" />
            </Array>
          </mxGeometry>
        </mxCell>
        <mxCell id="Q1PKUf69scCBTh1Wh_l3-64" value="Stage 04&lt;br style=&quot;font-size: 18px;&quot;&gt;&lt;span style=&quot;font-weight: normal; font-size: 18px;&quot;&gt;Model Trainer&lt;/span&gt;" style="whiteSpace=wrap;html=1;fontStyle=1;fontSize=18;spacing=0;fillColor=#fff2cc;strokeColor=#d6b656;" vertex="1" parent="Q1PKUf69scCBTh1Wh_l3-46">
          <mxGeometry x="710" y="68" width="180" height="60" as="geometry" />
        </mxCell>
        <mxCell id="Q1PKUf69scCBTh1Wh_l3-65" value="" style="html=1;rounded=1;curved=0;sourcePerimeterSpacing=0;targetPerimeterSpacing=0;startSize=6;endSize=6;noEdgeStyle=1;orthogonal=1;" edge="1" target="Q1PKUf69scCBTh1Wh_l3-66" source="Q1PKUf69scCBTh1Wh_l3-64" parent="Q1PKUf69scCBTh1Wh_l3-46">
          <mxGeometry relative="1" as="geometry">
            <mxPoint x="2355.29" y="5015.5" as="sourcePoint" />
            <Array as="points">
              <mxPoint x="902" y="98" />
              <mxPoint x="928" y="98" />
            </Array>
          </mxGeometry>
        </mxCell>
        <mxCell id="Q1PKUf69scCBTh1Wh_l3-66" value="Stage 05&lt;br style=&quot;font-size: 18px;&quot;&gt;&lt;span style=&quot;font-weight: normal; font-size: 18px;&quot;&gt;Model Evaluation&lt;/span&gt;" style="whiteSpace=wrap;html=1;fontStyle=1;fontSize=18;spacing=0;fillColor=#f8cecc;strokeColor=#b85450;" vertex="1" parent="Q1PKUf69scCBTh1Wh_l3-46">
          <mxGeometry x="940" y="68" width="180" height="60" as="geometry" />
        </mxCell>
      </root>
    </mxGraphModel>
  </diagram>
</mxfile>
